# xmcd CD database file
#
# Track frame offsets:
#	150
#	15025
#	27307
#	46282
#	62802
#	81755
#	98147
#	120010
#	133652
#	147810
#	162332
#	177025
#	190007
#	201330
#
# Disc length: 2886 seconds
#
# Revision: 1
# Processed by: cddbd v1.5.2PL0 Copyright (c) Steve Scherf et al.
# Submitted via: CDex 1.51
#
DISCID=aa0b440e
DTITLE=Varios artistas - As mais belas canções sertanejas
DYEAR=1900
DGENRE=Country
TTITLE0=Boi Soberano
TTITLE1=Moreninha Linda
TTITLE2=O peão e o ricaço
TTITLE3=Mágoa de boiadeiro
TTITLE4=Igrejinha da serra
TTITLE5=Condenado por amor
TTITLE6=Lembrança
TTITLE7=Caçando e Pescando
TTITLE8=Cantinho do céu
TTITLE9=Berrante de Madalena
TTITLE10=Canoeiro
TTITLE11=Gente de minha terra
TTITLE12=Jardineira do adeus
TTITLE13=Cabocla tereza
EXTD=
EXTT0=
EXTT1=
EXTT2=
EXTT3=
EXTT4=
EXTT5=
EXTT6=
EXTT7=
EXTT8=
EXTT9=
EXTT10=
EXTT11=
EXTT12=
EXTT13=
PLAYORDER=
